<svg t="1573109590537" class="icon" viewBox="0 0 1024 1024" version="1.1" xmlns="http://www.w3.org/2000/svg" p-id="1624" width="200" height="200"><path d="M679.765 106.667L607.147 147.2l281.6 161.43v-82.582zM789.91 436.309l99.35 56.768V373.91l-99.35-56.768z m0 322.347L587.904 871.403l87.125 49.77L889.28 801.621V558.06l-99.37-56.768z m-431.082-651.99l-208.94 119.383v82.56l281.6-161.387zM149.333 373.91v119.168l99.371-56.768V317.141z m0 184.171v243.541l214.251 119.552 87.125-49.77-202.026-112.747V501.291z m372.758-193.835l181.333-97.024-178.88-102.186-180.693 100.842z m25.664 267.392l185.728-103.68V315.136l-185.216 99.861zM309.61 531.755l185.237 99.861v-212.8L309.12 315.136z" fill="#2c2c2c" p-id="1625"></path><path d="M733.483 592.555L518.912 712.34 310.293 593.11v132.63l208.939 119.38 214.25-119.573z" fill="#2c2c2c" p-id="1626"></path></svg>